<svg width="32" height="33" viewBox="0 0 32 33" fill="none" xmlns="http://www.w3.org/2000/svg">
<path d="M16 21.5291C18.7614 21.5291 21 19.2905 21 16.5291C21 13.7677 18.7614 11.5291 16 11.5291C13.2386 11.5291 11 13.7677 11 16.5291C11 19.2905 13.2386 21.5291 16 21.5291Z" stroke="#FA41FE" stroke-width="2" stroke-miterlimit="10"/>
<path d="M21.5 5.02911H10.5C7.18629 5.02911 4.5 7.71541 4.5 11.0291V22.0291C4.5 25.3428 7.18629 28.0291 10.5 28.0291H21.5C24.8137 28.0291 27.5 25.3428 27.5 22.0291V11.0291C27.5 7.71541 24.8137 5.02911 21.5 5.02911Z" stroke="#FA41FE" stroke-width="2" stroke-linecap="round" stroke-linejoin="round"/>
<path d="M22.5 11.5291C23.3284 11.5291 24 10.8575 24 10.0291C24 9.20069 23.3284 8.52911 22.5 8.52911C21.6716 8.52911 21 9.20069 21 10.0291C21 10.8575 21.6716 11.5291 22.5 11.5291Z" fill="#FA41FE"/>
</svg>
