<svg width="32" height="33" viewBox="0 0 32 33" fill="none" xmlns="http://www.w3.org/2000/svg">
<path d="M16 11.5291C16 8.77914 18.3125 6.49164 21.0625 6.52914C22.0256 6.54026 22.9649 6.82929 23.7676 7.36149C24.5704 7.89368 25.2023 8.6464 25.5875 9.52914H30L25.9625 13.5666C25.7019 17.6224 23.9066 21.4266 20.9415 24.206C17.9764 26.9853 14.0641 28.5311 10 28.5291C6 28.5291 5 27.0291 5 27.0291C5 27.0291 9 25.5291 11 22.5291C11 22.5291 3 18.5291 5 7.52914C5 7.52914 10 12.5291 16 13.5291V11.5291Z" stroke="#2871FF" stroke-width="2" stroke-linecap="round" stroke-linejoin="round"/>
</svg>
