<svg width="33" height="33" viewBox="0 0 33 33" fill="none" xmlns="http://www.w3.org/2000/svg">
<path d="M21.2824 25.5291H15.8426C15.6011 25.5292 15.3678 25.6135 15.1852 25.7666L9.28125 30.5291V25.5291H6.1875C5.914 25.5291 5.65169 25.4238 5.4583 25.2362C5.2649 25.0487 5.15625 24.7943 5.15625 24.5291V6.52911C5.15625 6.2639 5.2649 6.00954 5.4583 5.82201C5.65169 5.63447 5.914 5.52911 6.1875 5.52911H26.8125C27.086 5.52911 27.3483 5.63447 27.5417 5.82201C27.7351 6.00954 27.8438 6.2639 27.8438 6.52911V20.0666C27.8417 20.2123 27.8072 20.3559 27.7427 20.4874C27.6782 20.619 27.5851 20.7356 27.4699 20.8291L21.9398 25.2916C21.7572 25.4448 21.5239 25.5291 21.2824 25.5291V25.5291Z" stroke="#9A35FF" stroke-width="2" stroke-linecap="round" stroke-linejoin="round"/>
<path d="M21.6562 11.5291V17.5291" stroke="#9A35FF" stroke-width="2" stroke-linecap="round" stroke-linejoin="round"/>
<path d="M15.4688 11.5291V17.5291" stroke="#9A35FF" stroke-width="2" stroke-linecap="round" stroke-linejoin="round"/>
</svg>
