<svg width="32" height="33" viewBox="0 0 32 33" fill="none" xmlns="http://www.w3.org/2000/svg">
<path d="M20 16.5291L14 12.5291V20.5291L20 16.5291Z" stroke="#F40000" stroke-width="2" stroke-linecap="round" stroke-linejoin="round"/>
<path d="M3 16.5291C3 20.2541 3.3875 22.4291 3.675 23.5541C3.75427 23.8594 3.90418 24.1417 4.11262 24.3784C4.32106 24.615 4.58221 24.7994 4.875 24.9166C9.0625 26.5166 16 26.4791 16 26.4791C16 26.4791 22.9375 26.5166 27.125 24.9166C27.4178 24.7994 27.6789 24.615 27.8874 24.3784C28.0958 24.1417 28.2457 23.8594 28.325 23.5541C28.6125 22.4291 29 20.2541 29 16.5291C29 12.8041 28.6125 10.6291 28.325 9.50412C28.2457 9.19887 28.0958 8.91652 27.8874 8.67985C27.6789 8.44318 27.4178 8.25881 27.125 8.14162C22.9375 6.54162 16 6.57912 16 6.57912C16 6.57912 9.0625 6.54162 4.875 8.14162C4.58221 8.25881 4.32106 8.44318 4.11262 8.67985C3.90418 8.91652 3.75427 9.19887 3.675 9.50412C3.3875 10.6291 3 12.8041 3 16.5291Z" stroke="#F40000" stroke-width="2" stroke-linecap="round" stroke-linejoin="round"/>
</svg>
